<svg xmlns="http://www.w3.org/2000/svg" version="1.1" viewBox="-5.0 -10.0 110.0 135.0">
 <g>
  <path d="m30.586 60.887c3.3555 2.543 5.3594 6.7422 5.3594 11.227v9.4844c0 4.5156 3.1016 8.3125 7.2891 9.3984v0.67578c0 2.6289 2.1445 4.7656 4.7812 4.7656h3.9688c2.6367 0 4.7812-2.1367 4.7812-4.7656v-0.67578c4.1797-1.0898 7.2734-4.8828 7.2734-9.3984v-9.4844c0-4.4883 2.0039-8.6875 5.3633-11.23 8.0977-6.1406 12.742-15.477 12.742-25.621 0-17.719-14.422-32.137-32.152-32.137-17.727 0.003906-32.137 14.418-32.137 32.137 0 10.148 4.6406 19.488 12.727 25.625zm8.4844 20.711v-3.7109l21.844-2.6836v3.8516l-21.832 2.6719c0-0.046874-0.015625-0.085937-0.015625-0.13281zm21.848-9.543-21.852 2.6836v-2.625c0-0.90625-0.09375-1.7969-0.22266-2.6758h22.293c-0.12891 0.85938-0.21875 1.7305-0.21875 2.6172zm-8.9336 21.258h-3.9688c-0.91406 0-1.6562-0.73438-1.6562-1.6406v-0.35156h7.2812v0.35156c0 0.90625-0.74219 1.6406-1.6562 1.6406zm2.332-5.1172h-8.6328c-2.4844 0-4.6289-1.3906-5.7617-3.418l20.93-2.5625c-0.31641 3.3477-3.1094 5.9844-6.5352 5.9844zm-4.3242-81.945c16.004 0 29.027 13.016 29.027 29.012 0 9.1562-4.1953 17.59-11.504 23.133-2.6133 1.9805-4.5547 4.7617-5.6328 7.918h-23.777c-1.0781-3.1562-3.0195-5.9375-5.6289-7.918-7.3047-5.5391-11.492-13.969-11.492-23.133 0-15.996 13.016-29.012 29.012-29.012z"/>
  <path d="m40.438 43.219h2.2461l1.5664 19.578c0.066406 0.81641 0.75 1.4375 1.5547 1.4375 0.039062 0 0.085937 0 0.125-0.003906 0.85937-0.070313 1.5-0.82031 1.4336-1.6797l-1.5469-19.332h8.582l-1.5469 19.332c-0.070312 0.85938 0.57031 1.6133 1.4336 1.6836 0.042969 0.003906 0.085938 0.003906 0.125 0.003906 0.80859 0 1.4922-0.62109 1.5547-1.4375l1.5703-19.582h2.2422c2.7266 0 4.9414-2.2188 4.9414-4.9414 0-2.7266-2.2188-4.9414-4.9688-4.9414-2.5586 0-4.7227 1.9961-4.9258 4.5469l-0.17578 2.2109h-9.082l-0.17578-2.2109c-0.20312-2.5508-2.3672-4.5469-4.9531-4.5469-2.7266 0-4.9414 2.2188-4.9414 4.9414 0 2.7266 2.2188 4.9414 4.9414 4.9414zm17.508-5.0898c0.074219-0.9375 0.87109-1.6719 1.8359-1.6719 1.0039 0 1.8164 0.81641 1.8164 1.8164s-0.8125 1.8164-1.8164 1.8164h-1.9922zm-17.48-1.6719c0.94141 0 1.7344 0.73438 1.8125 1.6719l0.15625 1.9609h-1.9922c-1.0039 0-1.8164-0.81641-1.8164-1.8164s0.8125-1.8164 1.8438-1.8164z"/>
 </g>
</svg>