<svg xmlns="http://www.w3.org/2000/svg" data-name="Layer 1" viewBox="0 0 100 125" x="0px" y="0px"><title>Dark Mode</title><path d="M70.3,45.27c0-6.44,2.55-9,9-9-6.44,0-9-2.55-9-9,0,6.45-2.55,9-9,9C67.75,36.28,70.3,38.83,70.3,45.27Zm5.61,3.45c0,4.26-1.69,6-6,6,4.26,0,6,1.69,6,5.95,0-4.26,1.69-5.95,6-5.95C77.6,54.67,75.91,53,75.91,48.72ZM53.58,31.88c0-3.05,1.21-4.26,4.26-4.26-3.05,0-4.26-1.21-4.26-4.26,0,3.05-1.21,4.26-4.26,4.26C52.37,27.62,53.58,28.83,53.58,31.88ZM65.44,75.94a48.15,48.15,0,0,1-22-73.44A48.15,48.15,0,1,0,93.53,77.71,47.87,47.87,0,0,1,65.44,75.94Z"/></svg>